<?xml version="1.0" encoding="UTF-8" standalone="no"?>
<!-- Created with Inkscape (http://www.inkscape.org/) -->

<svg
   width="43.176971mm"
   height="25.258326mm"
   viewBox="0 0 43.176971 25.258326"
   version="1.1"
   id="svg1"
   xml:space="preserve"
   inkscape:version="1.4 (e7c3feb100, 2024-10-09)"
   sodipodi:docname="drawing.svg"
   inkscape:export-batch-path="/home/yehori/Images/Graphics"
   inkscape:export-batch-name="drawing"
   xmlns:inkscape="http://www.inkscape.org/namespaces/inkscape"
   xmlns:sodipodi="http://sodipodi.sourceforge.net/DTD/sodipodi-0.dtd"
   xmlns="http://www.w3.org/2000/svg"
   xmlns:svg="http://www.w3.org/2000/svg"><sodipodi:namedview
     id="namedview1"
     pagecolor="#ffffff"
     bordercolor="#000000"
     borderopacity="0.25"
     inkscape:showpageshadow="2"
     inkscape:pageopacity="0.0"
     inkscape:pagecheckerboard="0"
     inkscape:deskcolor="#d1d1d1"
     inkscape:document-units="mm"
     inkscape:zoom="0.70710678"
     inkscape:cx="661.14484"
     inkscape:cy="566.39253"
     inkscape:window-width="1920"
     inkscape:window-height="1052"
     inkscape:window-x="0"
     inkscape:window-y="0"
     inkscape:window-maximized="1"
     inkscape:current-layer="layer4" /><defs
     id="defs1" /><g
     inkscape:groupmode="layer"
     id="layer5"
     inkscape:label="Layer 5"
     transform="translate(-120.76707,-86.766964)"><path
       style="display:inline;fill:#7e3af3;fill-opacity:1;stroke:none;stroke-width:0.264583;stroke-opacity:1"
       d="m 132.5245,98.865292 c 0,0 4.07648,5.775248 9.39649,6.835878 3.8485,0.76725 8.20744,-2.22932 10.94975,-1.6973 4.43554,0.86052 11.0733,8.02142 11.0733,8.02142 l -6.82873,-8.69962 c 0,0 0.095,-4.289688 -1.98781,-5.893288 -1.90134,-1.46389 -3.43862,-2.825933 -7.97653,-2.881473 -1.18522,-0.176582 -7.39795,-0.611949 -12.99652,0.175243 -2.20987,0.52388 -6.38741,-6.06116 -8.73727,-7.77864 -0.93284,-0.68181 -2.5615,0.70604 -2.41432,1.85208 0.33733,2.62676 6.31692,5.52318 6.31692,5.52318 0,0 -4.06517,-2.31475 -6.78091,-2.56198 -1.28899,-0.11734 -2.19357,1.45286 -1.56985,2.35247 1.38338,1.99533 7.62316,2.19388 7.62316,2.19388 0,0 -5.37568,0.4699 -6.54017,0.85163 -0.81153,0.26603 -1.50336,2.16417 -0.45475,2.58795 2.34745,0.948698 7.7556,-1.19062 7.7556,-1.19062 0,0 -2.90243,1.993658 -4.7625,3.208068 -0.85091,0.55555 0.0154,3.06104 0.92604,2.76159 2.97753,-0.97912 7.0081,-5.660468 7.0081,-5.660468 z"
       id="path54-4"
       sodipodi:nodetypes="cssccsczsscsscsscssc"
       inkscape:label="колибри" /><path
       style="display:inline;fill:#000000;fill-opacity:1;stroke:none;stroke-width:0.264583;stroke-opacity:1"
       d="m 154.84381,101.35903 c 0.34035,-0.48325 -0.0152,-1.389058 -0.5209,-1.694988 -0.39823,-0.24089 -1.12871,-0.14012 -1.37253,0.25632 -0.2737,0.445008 0.0133,1.200828 0.43822,1.504808 0.39491,0.28253 1.17561,0.33085 1.45521,-0.0662 z"
       id="path55-7"
       sodipodi:nodetypes="sssss" /></g></svg>
