<?xml version="1.0" encoding="UTF-8" standalone="no"?>
<!-- Created with Inkscape (http://www.inkscape.org/) -->

<svg
   width="15.195044mm"
   height="37.271198mm"
   viewBox="0 0 15.195044 37.271198"
   version="1.1"
   id="svg1"
   xml:space="preserve"
   inkscape:version="1.4 (e7c3feb100, 2024-10-09)"
   sodipodi:docname="drawing.svg"
   inkscape:export-batch-path="/home/yehori/Images/Graphics"
   inkscape:export-batch-name="drawing"
   xmlns:inkscape="http://www.inkscape.org/namespaces/inkscape"
   xmlns:sodipodi="http://sodipodi.sourceforge.net/DTD/sodipodi-0.dtd"
   xmlns="http://www.w3.org/2000/svg"
   xmlns:svg="http://www.w3.org/2000/svg"><sodipodi:namedview
     id="namedview1"
     pagecolor="#ffffff"
     bordercolor="#000000"
     borderopacity="0.25"
     inkscape:showpageshadow="2"
     inkscape:pageopacity="0.0"
     inkscape:pagecheckerboard="0"
     inkscape:deskcolor="#d1d1d1"
     inkscape:document-units="mm"
     inkscape:zoom="0.70710678"
     inkscape:cx="661.14484"
     inkscape:cy="566.39253"
     inkscape:window-width="1920"
     inkscape:window-height="1052"
     inkscape:window-x="0"
     inkscape:window-y="0"
     inkscape:window-maximized="1"
     inkscape:current-layer="layer4" /><defs
     id="defs1" /><g
     inkscape:groupmode="layer"
     id="layer6"
     inkscape:label="Layer 6"
     transform="translate(-132.97846,-59.144809)"><path
       style="display:inline;fill:#8458d5;fill-opacity:1;stroke:none;stroke-width:0.270985;stroke-opacity:1"
       d="m 147.79527,96.409118 c -0.31063,-2.621156 0.0395,-8.159165 0.36332,-12.219199 0.15617,-1.958408 -0.94734,-3.831345 -1.77735,-5.593206 -1.40234,-2.97674 -3.84764,-5.30996 -5.33202,-8.242611 -1.73272,-3.423281 -3.21055,-9.259893 -4.11157,-10.798184 -0.26396,-0.415732 -0.54617,-1.101127 -1.59617,1.400266 -1.2685,3.02194 0.84343,8.171343 0.84343,8.171343 l -1.02185,-1.049119 c -2.33015,-2.39233 -1.67572,3.940618 0.22673,6.88763 0,0 -1.49319,-1.200456 -2.00034,-0.715627 -1.46254,1.398189 1.7197,5.916325 1.7197,5.916325 0,0 -1.51475,-0.883254 -1.91696,-0.366588 -1.08903,1.398902 2.33791,4.733219 2.33791,4.733219 0,0 -1.29983,-0.933878 -1.6838,-0.380246 -0.86359,1.245195 1.63703,4.280761 1.63703,4.280761 0,0 -1.18867,-0.83585 -1.53497,-0.364228 -1.02383,1.394339 2.42364,4.043964 2.42364,4.043964 0,0 -0.98819,-0.139735 -1.19033,0.123896 -0.96562,1.259345 1.89308,3.580376 1.89308,3.580376 -2.90138,0.599714 10.86645,0.617043 10.72052,0.591228 z"
       id="path54-3-5"
       sodipodi:nodetypes="cssscscscscscscscscc"
       inkscape:label="крыло"
       mask="none" /></g></svg>
