<?xml version="1.0" encoding="UTF-8" standalone="no"?>
<!-- Created with Inkscape (http://www.inkscape.org/) -->

<svg
   width="14.944549mm"
   height="37.173965mm"
   viewBox="0 0 14.944549 37.173965"
   version="1.1"
   id="svg1"
   xml:space="preserve"
   inkscape:version="1.4 (e7c3feb100, 2024-10-09)"
   sodipodi:docname="drawing.svg"
   inkscape:export-batch-path="/home/yehori/Images/Graphics"
   inkscape:export-batch-name="drawing"
   xmlns:inkscape="http://www.inkscape.org/namespaces/inkscape"
   xmlns:sodipodi="http://sodipodi.sourceforge.net/DTD/sodipodi-0.dtd"
   xmlns="http://www.w3.org/2000/svg"
   xmlns:svg="http://www.w3.org/2000/svg"><sodipodi:namedview
     id="namedview1"
     pagecolor="#ffffff"
     bordercolor="#000000"
     borderopacity="0.25"
     inkscape:showpageshadow="2"
     inkscape:pageopacity="0.0"
     inkscape:pagecheckerboard="0"
     inkscape:deskcolor="#d1d1d1"
     inkscape:document-units="mm"
     inkscape:zoom="0.70710678"
     inkscape:cx="661.14484"
     inkscape:cy="566.39253"
     inkscape:window-width="1920"
     inkscape:window-height="1052"
     inkscape:window-x="0"
     inkscape:window-y="0"
     inkscape:window-maximized="1"
     inkscape:current-layer="layer4" /><defs
     id="defs1" /><g
     inkscape:groupmode="layer"
     id="layer3"
     inkscape:label="Layer 4"
     transform="translate(-132.43449,-94.612963)"><path
       style="display:inline;fill:#7e3af3;fill-opacity:1;stroke-width:0.132292"
       d="m 135.58649,131.5532 c -0.391,-0.43206 -1.02844,-1.97507 -1.16726,-2.82553 -0.22195,-1.35976 0.095,-3.62336 0.80537,-5.75103 0.20414,-0.61146 0.33805,-1.11174 0.29759,-1.11174 -0.0405,0 -0.44555,0.35719 -0.90019,0.79375 -0.45463,0.43656 -0.88992,0.79375 -0.9673,0.79375 -0.0774,0 -0.23924,-0.15041 -0.3597,-0.33424 -0.18024,-0.2751 -0.20636,-0.56189 -0.14758,-1.62058 0.0861,-1.55139 0.46958,-3.0484 1.13426,-4.42825 0.27162,-0.5639 0.48258,-1.02526 0.46879,-1.02526 -0.0138,0 -0.36458,0.17859 -0.77954,0.39687 -0.91807,0.48293 -1.05776,0.4894 -1.33785,0.0619 -0.47523,-0.72528 0.0379,-2.65147 1.21486,-4.56047 0.32231,-0.52276 0.58601,-1.00145 0.58601,-1.06376 0,-0.0623 -0.25301,0.002 -0.56224,0.14193 -0.68823,0.31239 -1.23374,0.33344 -1.34183,0.0518 -0.30945,-0.8064 0.12609,-1.86032 1.42201,-3.44098 0.47152,-0.57513 0.83795,-1.06506 0.81427,-1.08873 -0.0237,-0.0237 -0.22421,0.0506 -0.44564,0.16515 -0.22143,0.1145 -0.54801,0.20819 -0.72574,0.20819 -0.88797,0 -0.48667,-1.83605 0.78958,-3.6125 0.25556,-0.35571 0.44243,-0.66897 0.41526,-0.69613 -0.0272,-0.0272 -0.3079,0.0785 -0.62387,0.23485 l -0.5745,0.28424 -0.25324,-0.31275 c -0.4637,-0.57264 0.0192,-1.54397 1.49603,-3.009137 l 0.96599,-0.95837 h -0.52929 c -0.62563,0 -0.84679,-0.18104 -0.84679,-0.69319 0,-0.56477 0.44324,-1.32363 1.26432,-2.16463 0.47301,-0.4845 0.68244,-0.78784 0.58533,-0.84785 -0.0866,-0.0535 0.037,-0.13255 0.28942,-0.18497 0.39327,-0.0817 7.25086,-0.32445 9.53567,-0.33757 l 0.89297,-0.005 0.005,3.07578 c 0.003,1.69168 0.0602,3.849697 0.12789,4.795577 0.32411,4.53277 0.32515,5.37321 0.008,6.42729 -0.69697,2.3157 -2.05589,4.72968 -4.90889,8.72011 -1.90928,2.67047 -2.5522,4.06203 -4.49238,9.72344 -1.0636,3.10355 -1.61315,4.43177 -1.83365,4.43177 -0.0603,0 -0.20468,-0.10511 -0.32094,-0.23357 z"
       id="path1"
       inkscape:label="крыло" /></g></svg>
